<svg width="22" height="28" viewBox="0 0 22 28" fill="none" xmlns="http://www.w3.org/2000/svg">
<path id="Vector" d="M22 9.716C21.9857 9.58739 21.958 9.46068 21.9175 9.338V9.212C21.8514 9.06805 21.7632 8.93573 21.6562 8.82L13.4062 0.42C13.2926 0.311103 13.1626 0.221313 13.0213 0.154C12.9802 0.148064 12.9385 0.148064 12.8975 0.154C12.7578 0.0724377 12.6036 0.0200819 12.4438 0H4.125C3.03098 0 1.98177 0.442499 1.20818 1.23015C0.434597 2.0178 0 3.08609 0 4.2V23.8C0 24.9139 0.434597 25.9822 1.20818 26.7698C1.98177 27.5575 3.03098 28 4.125 28H17.875C18.969 28 20.0182 27.5575 20.7918 26.7698C21.5654 25.9822 22 24.9139 22 23.8V9.8C22 9.8 22 9.8 22 9.716ZM13.75 4.774L17.3113 8.4H15.125C14.7603 8.4 14.4106 8.2525 14.1527 7.98995C13.8949 7.7274 13.75 7.3713 13.75 7V4.774ZM19.25 23.8C19.25 24.1713 19.1051 24.5274 18.8473 24.7899C18.5894 25.0525 18.2397 25.2 17.875 25.2H4.125C3.76033 25.2 3.41059 25.0525 3.15273 24.7899C2.89487 24.5274 2.75 24.1713 2.75 23.8V4.2C2.75 3.8287 2.89487 3.4726 3.15273 3.21005C3.41059 2.9475 3.76033 2.8 4.125 2.8H11V7C11 8.11391 11.4346 9.1822 12.2082 9.96985C12.9818 10.7575 14.031 11.2 15.125 11.2H19.25V23.8ZM14.1488 14.406L9.625 19.026L7.85125 17.206C7.59233 16.9424 7.24116 16.7943 6.875 16.7943C6.50884 16.7943 6.15767 16.9424 5.89875 17.206C5.63983 17.4696 5.49437 17.8272 5.49437 18.2C5.49437 18.5728 5.63983 18.9304 5.89875 19.194L8.64875 21.994C8.77657 22.1252 8.92865 22.2294 9.09621 22.3004C9.26376 22.3715 9.44348 22.4081 9.625 22.4081C9.80652 22.4081 9.98624 22.3715 10.1538 22.3004C10.3213 22.2294 10.4734 22.1252 10.6012 21.994L16.1012 16.394C16.3602 16.1304 16.5056 15.7728 16.5056 15.4C16.5056 15.0272 16.3602 14.6696 16.1012 14.406C15.8423 14.1424 15.4912 13.9943 15.125 13.9943C14.7588 13.9943 14.4077 14.1424 14.1488 14.406Z" fill="#888888"/>
</svg>
