<svg width="50" height="50" viewBox="0 0 50 50" fill="none" xmlns="http://www.w3.org/2000/svg">
<path d="M46.875 21.875H28.125V3.125C28.125 2.2962 27.7958 1.50134 27.2097 0.915292C26.6237 0.329241 25.8288 0 25 0C24.1712 0 23.3763 0.329241 22.7903 0.915292C22.2042 1.50134 21.875 2.2962 21.875 3.125V21.875H3.125C2.2962 21.875 1.50134 22.2042 0.915292 22.7903C0.329241 23.3763 0 24.1712 0 25C0 25.8288 0.329241 26.6237 0.915292 27.2097C1.50134 27.7958 2.2962 28.125 3.125 28.125H21.875V46.875C21.875 47.7038 22.2042 48.4987 22.7903 49.0847C23.3763 49.6708 24.1712 50 25 50C25.8288 50 26.6237 49.6708 27.2097 49.0847C27.7958 48.4987 28.125 47.7038 28.125 46.875V28.125H46.875C47.7038 28.125 48.4987 27.7958 49.0847 27.2097C49.6708 26.6237 50 25.8288 50 25C50 24.1712 49.6708 23.3763 49.0847 22.7903C48.4987 22.2042 47.7038 21.875 46.875 21.875Z" fill="#3788CE"/>
</svg>
