<svg width="50" height="50" viewBox="0 0 50 50" fill="none" xmlns="http://www.w3.org/2000/svg">
<path d="M49.1966 11.3309L45.6529 7.80726L49.1966 4.2836C49.6665 3.81302 49.9305 3.17478 49.9305 2.50927C49.9305 1.84377 49.6665 1.20553 49.1966 0.734949C48.7267 0.264369 48.0893 0 47.4247 0C46.7602 0 46.1228 0.264369 45.6529 0.734949L19.3495 27.0749C16.7692 25.3702 13.6488 24.6853 10.5929 25.1529C7.5371 25.6205 4.76339 27.2074 2.80927 29.6061C0.855155 32.0048 -0.140245 35.0444 0.0159495 38.1361C0.172144 41.2277 1.46881 44.1513 3.6547 46.3402C5.84059 48.5291 8.76006 49.8276 11.8474 49.984C14.9348 50.1404 17.9702 49.1437 20.3656 47.1868C22.7609 45.23 24.3456 42.4524 24.8126 39.3923C25.2796 36.3322 24.5956 33.2075 22.8932 30.6236L35.0716 18.4032L38.5904 21.9519C38.8236 22.1835 39.1001 22.3667 39.4042 22.4911C39.7082 22.6155 40.0338 22.6785 40.3623 22.6766C40.6907 22.6785 41.0163 22.6155 41.3203 22.4911C41.6244 22.3667 41.9009 22.1835 42.1341 21.9519C42.368 21.7196 42.5537 21.4432 42.6804 21.1386C42.8071 20.8341 42.8723 20.5075 42.8723 20.1776C42.8723 19.8477 42.8071 19.521 42.6804 19.2165C42.5537 18.9119 42.368 18.6355 42.1341 18.4032L38.5904 15.0045L42.1341 11.4559L45.6529 15.0045C45.8861 15.2361 46.1626 15.4194 46.4667 15.5437C46.7707 15.6681 47.0963 15.7311 47.4247 15.7292C47.7532 15.7311 48.0787 15.6681 48.3828 15.5437C48.6869 15.4194 48.9634 15.2361 49.1966 15.0045C49.4499 14.7705 49.6521 14.4865 49.7903 14.1704C49.9286 13.8542 50 13.5128 50 13.1677C50 12.8226 49.9286 12.4812 49.7903 12.1651C49.6521 11.849 49.4499 11.5649 49.1966 11.3309ZM12.4867 44.9931C11.0059 44.9931 9.55844 44.5534 8.32725 43.7296C7.09606 42.9058 6.13647 41.7349 5.56982 40.365C5.00316 38.9951 4.8549 37.4877 5.14378 36.0333C5.43266 34.579 6.1457 33.2432 7.19274 32.1947C8.23977 31.1462 9.57378 30.4322 11.0261 30.1429C12.4783 29.8536 13.9837 30.0021 15.3517 30.5695C16.7197 31.1369 17.889 32.0979 18.7116 33.3308C19.5343 34.5637 19.9734 36.0132 19.9734 37.496C19.9734 39.4843 19.1846 41.3913 17.7806 42.7973C16.3765 44.2032 14.4723 44.9931 12.4867 44.9931Z" fill="#3788CE"/>
</svg>
