<svg width="75" height="75" viewBox="0 0 75 75" fill="none" xmlns="http://www.w3.org/2000/svg">
<g clip-path="url(#clip0_1_56)">
<mask id="mask0_1_56" style="mask-type:luminance" maskUnits="userSpaceOnUse" x="0" y="0" width="75" height="75">
<path d="M75 0H0V75H75V0Z" fill="white"/>
</mask>
<g mask="url(#mask0_1_56)">
<mask id="mask1_1_56" style="mask-type:luminance" maskUnits="userSpaceOnUse" x="7" y="9" width="61" height="59">
<path d="M67.9688 9.375H7.03125V67.9688H67.9688V9.375Z" fill="white"/>
</mask>
<g mask="url(#mask1_1_56)">
<path d="M52.2115 38.91L48.5381 46.4714C46.6943 50.2674 42.948 52.6643 38.8594 52.6643H14.4143C10.3474 52.6493 7.03125 56.105 7.03125 60.3089C7.03125 64.5132 10.3474 67.9688 14.4143 67.9688H64.2881C67.2398 67.9688 68.9892 64.5434 67.3275 62.0103L52.2188 38.91H52.2115Z" fill="#99B3FF"/>
<path d="M60.5784 9.375H18.1678C12.0165 9.375 7.03125 14.547 7.03125 20.9289V60.3089C7.03125 56.1049 10.3474 52.6493 14.4143 52.6493H38.8666C42.9553 52.6493 46.7016 50.2523 48.5454 46.4564L63.858 14.8949C65.0899 12.3618 63.3187 9.375 60.5784 9.375Z" fill="#3366FF"/>
<path d="M40.0472 33.1709C42.5252 33.1709 44.5369 31.5453 44.5369 29.5339C44.5369 27.5225 42.5252 25.8969 40.0472 25.8969C37.5691 25.8969 35.5577 27.5225 35.5577 29.5339C35.5577 31.5453 37.5691 33.1709 40.0472 33.1709Z" fill="#DAFF86"/>
</g>
</g>
</g>
<defs>
<clipPath id="clip0_1_56">
<rect width="75" height="75" fill="white"/>
</clipPath>
</defs>
</svg>
